<svg xmlns="http://www.w3.org/2000/svg" xmlns:xlink="http://www.w3.org/1999/xlink" width="940" zoomAndPan="magnify" viewBox="0 0 705 260.999984" height="348" preserveAspectRatio="xMidYMid meet" version="1.0"><defs><g/><clipPath id="33a551bdbc"><rect x="0" width="693" y="0" height="261"/></clipPath></defs><g transform="matrix(1, 0, 0, 1, 4, -0.000000000000004857)"><g clip-path="url(#33a551bdbc)"><g fill="#375b69" fill-opacity="1"><g transform="translate(1.557564, 167.276446)"><g><path d="M 88.046875 -83.125 L 88.8125 -79.328125 C 88.8125 -78.691406 88.78125 -78.085938 88.71875 -77.515625 C 88.65625 -76.953125 88.5625 -76.351562 88.4375 -75.71875 C 88.4375 -76.351562 88.367188 -76.734375 88.234375 -76.859375 C 88.234375 -76.222656 88.203125 -75.679688 88.140625 -75.234375 C 88.078125 -74.796875 87.984375 -74.257812 87.859375 -73.625 C 88.109375 -73.882812 88.234375 -74.078125 88.234375 -74.203125 C 88.109375 -73.941406 88.046875 -73.625 88.046875 -73.25 C 88.046875 -72.875 87.984375 -72.492188 87.859375 -72.109375 C 86.847656 -68.191406 84.664062 -64.457031 81.3125 -60.90625 C 77.957031 -57.363281 74.003906 -54.109375 69.453125 -51.140625 C 64.898438 -48.171875 60.28125 -45.578125 55.59375 -43.359375 C 50.914062 -41.148438 46.679688 -39.347656 42.890625 -37.953125 C 42.378906 -37.703125 42.03125 -37.546875 41.84375 -37.484375 C 41.65625 -37.421875 41.367188 -37.132812 40.984375 -36.625 C 41.109375 -36.75 40.695312 -36.398438 39.75 -35.578125 C 38.800781 -34.753906 37.660156 -33.675781 36.328125 -32.34375 C 35.003906 -31.019531 33.773438 -29.691406 32.640625 -28.359375 C 31.503906 -27.035156 30.867188 -25.992188 30.734375 -25.234375 C 29.597656 -19.796875 28.144531 -14.515625 26.375 -9.390625 C 24.601562 -4.265625 22.644531 1.015625 20.5 6.453125 L 19.734375 7.59375 C 18.722656 9.113281 17.425781 10.945312 15.84375 13.09375 C 14.257812 15.238281 12.394531 16.3125 10.25 16.3125 C 8.226562 16.3125 6.644531 15.613281 5.5 14.21875 C 4.363281 12.832031 3.539062 11.160156 3.03125 9.203125 C 2.53125 7.242188 2.25 5.378906 2.1875 3.609375 C 2.125 1.835938 2.09375 0.570312 2.09375 -0.1875 C 2.09375 -9.675781 3.195312 -19.320312 5.40625 -29.125 C 7.625 -38.925781 9.804688 -48.570312 11.953125 -58.0625 C 12.460938 -60.46875 12.9375 -62.9375 13.375 -65.46875 C 13.820312 -68 14.488281 -70.335938 15.375 -72.484375 C 16.257812 -74.765625 17.015625 -77.070312 17.640625 -79.40625 C 18.273438 -81.75 18.59375 -84.125 18.59375 -86.53125 L 17.453125 -96.015625 C 17.453125 -97.660156 18.367188 -99.367188 20.203125 -101.140625 C 22.046875 -102.910156 24.359375 -104.554688 27.140625 -106.078125 C 29.921875 -107.597656 32.765625 -108.832031 35.671875 -109.78125 C 38.585938 -110.726562 41.054688 -111.203125 43.078125 -111.203125 L 50.09375 -110.828125 C 53.757812 -110.828125 57.742188 -110.160156 62.046875 -108.828125 C 66.347656 -107.503906 70.488281 -105.671875 74.46875 -103.328125 C 78.457031 -100.984375 81.71875 -98.164062 84.25 -94.875 C 86.78125 -91.59375 88.046875 -87.988281 88.046875 -84.0625 Z M 71.359375 -75.34375 L 71.359375 -76.28125 C 71.359375 -78.175781 70.503906 -79.945312 68.796875 -81.59375 C 67.085938 -83.238281 65.03125 -84.628906 62.625 -85.765625 C 60.21875 -86.910156 57.875 -87.546875 55.59375 -87.671875 L 55.796875 -87.671875 C 55.160156 -87.796875 54.585938 -87.890625 54.078125 -87.953125 C 53.578125 -88.015625 53.007812 -88.046875 52.375 -88.046875 C 48.582031 -88.046875 46.207031 -87.570312 45.25 -86.625 C 44.300781 -85.675781 43.765625 -84 43.640625 -81.59375 C 43.140625 -76.28125 42.347656 -71.15625 41.265625 -66.21875 C 40.191406 -61.289062 39.148438 -56.171875 38.140625 -50.859375 C 42.316406 -51.992188 46.238281 -53.570312 49.90625 -55.59375 C 53.570312 -57.625 57.113281 -59.96875 60.53125 -62.625 C 62.425781 -64.269531 64.578125 -66.164062 66.984375 -68.3125 C 69.390625 -70.46875 70.847656 -72.8125 71.359375 -75.34375 Z M 71.359375 -75.34375 "/></g></g></g><g fill="#375b69" fill-opacity="1"><g transform="translate(81.063941, 167.276446)"><g><path d="M 74.953125 -98.671875 C 75.210938 -98.046875 75.34375 -97.414062 75.34375 -96.78125 C 75.34375 -96.144531 75.34375 -95.515625 75.34375 -94.890625 C 75.34375 -90.585938 75.179688 -85.175781 74.859375 -78.65625 C 74.546875 -72.144531 73.628906 -66.234375 72.109375 -60.921875 C 71.347656 -58.390625 71 -55.984375 71.0625 -53.703125 C 71.125 -51.421875 70.78125 -49.269531 70.03125 -47.25 C 70.03125 -47.375 70.15625 -47.566406 70.40625 -47.828125 C 70.28125 -47.566406 70.148438 -46.960938 70.015625 -46.015625 C 69.890625 -45.066406 69.828125 -44.40625 69.828125 -44.03125 C 69.828125 -43.269531 70.113281 -42.507812 70.6875 -41.75 C 71.257812 -40.988281 71.546875 -40.101562 71.546875 -39.09375 C 71.421875 -37.820312 71.039062 -36.492188 70.40625 -35.109375 C 70.28125 -34.722656 70.117188 -34.34375 69.921875 -33.96875 C 69.734375 -33.59375 69.578125 -33.210938 69.453125 -32.828125 L 69.453125 -31.6875 C 69.453125 -31.1875 69.515625 -30.867188 69.640625 -30.734375 L 68.890625 -26.1875 C 69.015625 -25.550781 69.109375 -24.820312 69.171875 -24 C 69.234375 -23.175781 69.265625 -22.453125 69.265625 -21.828125 C 69.265625 -21.191406 69.234375 -20.585938 69.171875 -20.015625 C 69.109375 -19.453125 69.015625 -18.851562 68.890625 -18.21875 C 69.265625 -18.59375 69.453125 -19.097656 69.453125 -19.734375 L 70.96875 -1.515625 C 70.96875 -0.253906 70.875 0.910156 70.6875 1.984375 C 70.5 3.066406 70.40625 4.300781 70.40625 5.6875 C 70.53125 5.945312 70.59375 6.519531 70.59375 7.40625 C 70.59375 8.789062 70.085938 10.050781 69.078125 11.1875 C 68.066406 12.332031 67.429688 13.597656 67.171875 14.984375 L 67.171875 14.796875 C 66.921875 14.796875 66.664062 15.269531 66.40625 16.21875 C 66.15625 17.164062 65.773438 18.113281 65.265625 19.0625 C 64.765625 20.019531 63.882812 20.5 62.625 20.5 C 61.351562 20.5 60.179688 19.234375 59.109375 16.703125 C 58.035156 14.171875 57.085938 10.972656 56.265625 7.109375 C 55.441406 3.253906 54.710938 -0.660156 54.078125 -4.640625 C 53.453125 -8.628906 52.945312 -12.078125 52.5625 -14.984375 C 52.1875 -15.242188 52.03125 -15.878906 52.09375 -16.890625 C 52.15625 -17.898438 52.085938 -19.003906 51.890625 -20.203125 C 51.703125 -21.410156 51.101562 -22.457031 50.09375 -23.34375 C 49.082031 -24.226562 47.25 -24.671875 44.59375 -24.671875 C 42.695312 -24.671875 40.289062 -24.445312 37.375 -24 C 34.46875 -23.5625 31.878906 -23.21875 29.609375 -22.96875 C 28.847656 -22.832031 28.085938 -21.53125 27.328125 -19.0625 C 26.566406 -16.601562 25.773438 -13.882812 24.953125 -10.90625 C 24.128906 -7.9375 23.210938 -5.566406 22.203125 -3.796875 L 22.765625 -4.75 C 22.515625 -3.863281 22.070312 -2.28125 21.4375 0 C 20.8125 2.28125 19.957031 4.679688 18.875 7.203125 C 17.800781 9.734375 16.410156 11.882812 14.703125 13.65625 C 12.992188 15.425781 10.941406 16.3125 8.546875 16.3125 C 5.878906 16.3125 3.660156 15.046875 1.890625 12.515625 C 0.117188 9.992188 -0.765625 7.40625 -0.765625 4.75 C -0.765625 0.695312 0.148438 -3.601562 1.984375 -8.15625 C 3.828125 -12.707031 5.378906 -16.757812 6.640625 -20.3125 C 7.023438 -21.570312 7.660156 -23.085938 8.546875 -24.859375 C 9.429688 -26.628906 9.875 -28.210938 9.875 -29.609375 L 9.484375 -33.203125 C 9.484375 -34.472656 9.769531 -35.707031 10.34375 -36.90625 C 10.914062 -38.113281 11.390625 -39.347656 11.765625 -40.609375 C 11.765625 -40.359375 11.734375 -40.203125 11.671875 -40.140625 C 11.609375 -40.078125 11.578125 -39.976562 11.578125 -39.84375 C 12.335938 -41.488281 13.253906 -42.847656 14.328125 -43.921875 C 15.398438 -45.003906 16.253906 -46.429688 16.890625 -48.203125 C 19.171875 -55.535156 22.238281 -62.585938 26.09375 -69.359375 C 29.945312 -76.128906 33.269531 -83.179688 36.0625 -90.515625 C 36.945312 -92.921875 38.050781 -95.703125 39.375 -98.859375 C 40.707031 -102.023438 42.191406 -105.09375 43.828125 -108.0625 C 45.472656 -111.039062 47.242188 -113.507812 49.140625 -115.46875 C 51.046875 -117.425781 53.007812 -118.40625 55.03125 -118.40625 C 58.445312 -118.40625 61.925781 -117.425781 65.46875 -115.46875 C 69.007812 -113.507812 71.476562 -110.945312 72.875 -107.78125 C 73.5 -106.269531 73.875 -104.722656 74 -103.140625 C 74.132812 -101.554688 74.453125 -100.066406 74.953125 -98.671875 Z M 51.8125 -46.875 C 52.1875 -50.164062 52.59375 -53.582031 53.03125 -57.125 C 53.476562 -60.664062 53.703125 -64.207031 53.703125 -67.75 L 52.9375 -87.296875 C 51.425781 -83.617188 49.59375 -79.3125 47.4375 -74.375 C 45.289062 -69.445312 43.265625 -64.515625 41.359375 -59.578125 C 39.460938 -54.648438 38.070312 -50.289062 37.1875 -46.5 C 39.34375 -46.5 41.78125 -46.53125 44.5 -46.59375 C 47.21875 -46.65625 49.65625 -46.75 51.8125 -46.875 Z M 69.078125 -31.6875 C 69.078125 -31.6875 69.203125 -32.066406 69.453125 -32.828125 C 69.453125 -32.828125 69.328125 -32.445312 69.078125 -31.6875 Z M 69.078125 -31.6875 "/></g></g></g><g fill="#375b69" fill-opacity="1"><g transform="translate(159.052294, 167.276446)"><g><path d="M 91.46875 -73.25 C 92.726562 -69.582031 93.359375 -65.722656 93.359375 -61.671875 C 93.359375 -59.773438 93.132812 -58.003906 92.6875 -56.359375 C 92.25 -54.710938 91.90625 -53.003906 91.65625 -51.234375 C 91.65625 -46.679688 90.039062 -41.78125 86.8125 -36.53125 C 83.59375 -31.28125 79.421875 -26.15625 74.296875 -21.15625 C 69.171875 -16.15625 63.601562 -11.535156 57.59375 -7.296875 C 51.582031 -3.066406 45.796875 0.375 40.234375 3.03125 C 39.222656 3.539062 38.175781 4.140625 37.09375 4.828125 C 36.019531 5.523438 34.976562 6.003906 33.96875 6.265625 C 33.082031 6.515625 32.164062 6.640625 31.21875 6.640625 C 30.269531 6.640625 29.351562 6.832031 28.46875 7.21875 L 28.078125 7.21875 L 27.703125 7.59375 C 27.703125 7.46875 27.765625 7.40625 27.890625 7.40625 C 27.890625 7.90625 26.941406 8.375 25.046875 8.8125 C 23.148438 9.257812 21.945312 9.484375 21.4375 9.484375 C 20.9375 9.484375 20.367188 9.289062 19.734375 8.90625 C 19.097656 8.53125 18.53125 8.21875 18.03125 7.96875 L 18.03125 8.15625 C 17.90625 7.78125 17.460938 7.59375 16.703125 7.59375 L 15.375 7.78125 C 14.988281 7.78125 14.734375 7.71875 14.609375 7.59375 C 14.484375 7.71875 14.164062 7.78125 13.65625 7.78125 C 12.644531 7.78125 11.695312 7.335938 10.8125 6.453125 C 10.6875 6.578125 10.5 6.640625 10.25 6.640625 C 9.863281 6.640625 9.546875 6.476562 9.296875 6.15625 C 9.046875 5.84375 8.796875 5.5 8.546875 5.125 C 8.285156 5.125 7.929688 5.21875 7.484375 5.40625 C 7.046875 5.59375 6.578125 5.6875 6.078125 5.6875 C 5.441406 5.6875 4.457031 5.367188 3.125 4.734375 C 1.800781 4.109375 1.140625 2.785156 1.140625 0.765625 C 1.140625 -1.265625 1.675781 -3.257812 2.75 -5.21875 C 3.820312 -7.175781 4.738281 -9.039062 5.5 -10.8125 C 5.5 -19.164062 6.382812 -27.644531 8.15625 -36.25 C 9.925781 -44.851562 11.445312 -53.328125 12.71875 -61.671875 C 13.09375 -63.066406 13.40625 -64.269531 13.65625 -65.28125 C 13.914062 -66.289062 14.171875 -67.363281 14.421875 -68.5 C 15.054688 -72.800781 16.097656 -76.976562 17.546875 -81.03125 C 19.003906 -85.082031 19.925781 -89.320312 20.3125 -93.75 C 20.5625 -95.894531 21.03125 -98.039062 21.71875 -100.1875 C 22.414062 -102.34375 23.84375 -103.800781 26 -104.5625 C 27.519531 -105.0625 28.847656 -105.847656 29.984375 -106.921875 C 31.117188 -108.003906 32.316406 -108.988281 33.578125 -109.875 C 34.847656 -110.757812 36.367188 -111.203125 38.140625 -111.203125 L 40.984375 -111.203125 L 47.0625 -112.34375 C 48.195312 -112.34375 49.804688 -112.054688 51.890625 -111.484375 C 53.984375 -110.921875 56.234375 -110.160156 58.640625 -109.203125 C 61.046875 -108.253906 63.066406 -107.273438 64.703125 -106.265625 C 72.546875 -101.335938 78.460938 -96.34375 82.453125 -91.28125 C 86.441406 -86.21875 89.445312 -80.207031 91.46875 -73.25 Z M 71.734375 -55.40625 C 71.859375 -56.039062 71.953125 -56.675781 72.015625 -57.3125 C 72.078125 -57.945312 72.109375 -58.578125 72.109375 -59.203125 C 72.109375 -60.722656 71.789062 -62.75 71.15625 -65.28125 C 69.894531 -70.59375 68 -74.640625 65.46875 -77.421875 C 62.9375 -80.203125 59.992188 -82.320312 56.640625 -83.78125 C 53.285156 -85.238281 49.585938 -86.597656 45.546875 -87.859375 C 44.910156 -87.609375 43.957031 -87.195312 42.6875 -86.625 C 41.425781 -86.0625 40.671875 -85.398438 40.421875 -84.640625 C 40.421875 -82.109375 40.101562 -79.484375 39.46875 -76.765625 C 38.832031 -74.046875 38.265625 -71.421875 37.765625 -68.890625 C 37.128906 -65.972656 36.523438 -63.0625 35.953125 -60.15625 C 35.390625 -57.25 34.914062 -54.335938 34.53125 -51.421875 C 33.519531 -44.847656 32.066406 -38.363281 30.171875 -31.96875 C 28.273438 -25.582031 27.328125 -19.414062 27.328125 -13.46875 C 30.742188 -14.738281 34.789062 -16.640625 39.46875 -19.171875 C 44.15625 -21.703125 48.835938 -24.738281 53.515625 -28.28125 C 58.191406 -31.820312 62.207031 -35.867188 65.5625 -40.421875 C 68.914062 -44.972656 70.972656 -49.96875 71.734375 -55.40625 Z M 71.734375 -55.40625 "/></g></g></g><g fill="#375b69" fill-opacity="1"><g transform="translate(253.169633, 167.276446)"><g><path d="M 97.546875 -57.125 C 98.296875 -56.101562 98.671875 -55.21875 98.671875 -54.46875 C 98.671875 -53.582031 97.628906 -52.472656 95.546875 -51.140625 C 93.460938 -49.816406 91.910156 -48.898438 90.890625 -48.390625 C 89.878906 -48.015625 88.613281 -47.726562 87.09375 -47.53125 C 85.582031 -47.34375 84.257812 -47.25 83.125 -47.25 C 82.488281 -46.363281 81.695312 -44.71875 80.75 -42.3125 C 79.800781 -39.914062 78.945312 -37.957031 78.1875 -36.4375 C 77.175781 -34.28125 76.570312 -32.03125 76.375 -29.6875 C 76.1875 -27.351562 75.710938 -25.113281 74.953125 -22.96875 C 74.328125 -21.195312 74.046875 -19.488281 74.109375 -17.84375 C 74.171875 -16.195312 73.820312 -14.550781 73.0625 -12.90625 L 73.25 -11.390625 C 73.25 -10.753906 73.1875 -10.148438 73.0625 -9.578125 C 72.9375 -9.015625 72.8125 -8.414062 72.6875 -7.78125 L 72.875 -5.5 C 72.875 -4.613281 72.617188 -3.410156 72.109375 -1.890625 C 71.609375 -0.378906 71.359375 0.753906 71.359375 1.515625 L 71.546875 3.03125 C 71.546875 3.664062 71.226562 4.140625 70.59375 4.453125 C 69.957031 4.773438 69.453125 5.125 69.078125 5.5 C 69.078125 5.5 69.140625 5.46875 69.265625 5.40625 C 69.390625 5.34375 69.578125 5.25 69.828125 5.125 C 68.816406 6.132812 67.867188 6.671875 66.984375 6.734375 C 66.097656 6.796875 65.53125 7.082031 65.28125 7.59375 C 64.894531 8.601562 64.164062 9.421875 63.09375 10.046875 C 62.019531 10.679688 61.039062 11 60.15625 11 C 58.007812 11 56.363281 9.957031 55.21875 7.875 C 54.082031 5.789062 53.257812 3.289062 52.75 0.375 C 52.25 -2.53125 51.929688 -5.3125 51.796875 -7.96875 C 51.671875 -10.625 51.609375 -12.457031 51.609375 -13.46875 C 51.609375 -18.40625 51.988281 -23.4375 52.75 -28.5625 C 53.507812 -33.6875 54.269531 -38.648438 55.03125 -43.453125 C 52.125 -43.203125 49.148438 -42.757812 46.109375 -42.125 C 43.078125 -41.488281 39.851562 -40.984375 36.4375 -40.609375 C 35.800781 -38.328125 35.039062 -35.703125 34.15625 -32.734375 C 33.269531 -29.765625 32.257812 -27.078125 31.125 -24.671875 C 29.726562 -21.253906 28.425781 -17.929688 27.21875 -14.703125 C 26.019531 -11.484375 24.664062 -8.097656 23.15625 -4.546875 C 22.519531 -3.035156 21.820312 -0.828125 21.0625 2.078125 C 20.300781 4.992188 19.316406 7.6875 18.109375 10.15625 C 16.910156 12.625 15.300781 13.859375 13.28125 13.859375 C 13.914062 13.859375 13.851562 13.789062 13.09375 13.65625 C 12.332031 13.53125 11.445312 13.34375 10.4375 13.09375 C 9.425781 12.84375 8.859375 12.523438 8.734375 12.140625 C 8.222656 9.359375 7.804688 6.609375 7.484375 3.890625 C 7.171875 1.171875 7.015625 -1.578125 7.015625 -4.359375 C 7.015625 -16.890625 8.21875 -29.828125 10.625 -43.171875 C 13.03125 -56.515625 16.382812 -69.515625 20.6875 -82.171875 C 20.8125 -82.671875 21.285156 -84.375 22.109375 -87.28125 C 22.929688 -90.195312 24.097656 -93.425781 25.609375 -96.96875 C 27.128906 -100.507812 28.992188 -103.609375 31.203125 -106.265625 C 33.421875 -108.921875 35.988281 -110.25 38.90625 -110.25 C 41.6875 -110.25 44.085938 -109.140625 46.109375 -106.921875 C 48.140625 -104.710938 49.15625 -101.207031 49.15625 -96.40625 C 49.15625 -95.394531 49.023438 -94.316406 48.765625 -93.171875 C 48.515625 -92.035156 48.328125 -90.960938 48.203125 -89.953125 C 48.203125 -90.078125 48.140625 -90.203125 48.015625 -90.328125 C 48.015625 -85.015625 47.191406 -79.921875 45.546875 -75.046875 C 43.898438 -70.179688 42.570312 -65.597656 41.5625 -61.296875 C 44.46875 -61.296875 47.4375 -61.515625 50.46875 -61.953125 C 53.507812 -62.398438 56.484375 -62.8125 59.390625 -63.1875 C 61.160156 -70.40625 63.25 -77.554688 65.65625 -84.640625 C 68.0625 -91.722656 70.71875 -98.679688 73.625 -105.515625 C 73.882812 -105.890625 74.171875 -106.835938 74.484375 -108.359375 C 74.796875 -109.878906 75.550781 -111.332031 76.75 -112.71875 C 77.957031 -114.113281 79.828125 -114.8125 82.359375 -114.8125 C 82.992188 -114.8125 83.46875 -114.742188 83.78125 -114.609375 C 84.09375 -114.484375 84.503906 -114.421875 85.015625 -114.421875 L 87.484375 -114.625 C 88.117188 -114.625 88.6875 -114.492188 89.1875 -114.234375 C 91.46875 -112.460938 92.921875 -110.878906 93.546875 -109.484375 C 94.179688 -108.097656 94.5 -106.203125 94.5 -103.796875 C 94.5 -102.660156 94.4375 -101.554688 94.3125 -100.484375 C 94.1875 -99.410156 94.0625 -98.363281 93.9375 -97.34375 C 92.925781 -91.019531 91.941406 -84.914062 90.984375 -79.03125 C 90.035156 -73.15625 88.742188 -67.242188 87.109375 -61.296875 C 88.617188 -60.785156 90.609375 -60.242188 93.078125 -59.671875 C 95.546875 -59.109375 97.035156 -58.257812 97.546875 -57.125 Z M 97.546875 -57.125 "/></g></g></g><g fill="#375b69" fill-opacity="1"><g transform="translate(349.184497, 167.276446)"><g><path d="M 118.40625 -124.671875 C 118.40625 -123.285156 118.179688 -121.863281 117.734375 -120.40625 C 117.296875 -118.945312 116.953125 -117.523438 116.703125 -116.140625 C 116.328125 -114.617188 116.203125 -113.097656 116.328125 -111.578125 C 116.453125 -110.066406 116.390625 -108.550781 116.140625 -107.03125 C 115.503906 -103.488281 115.21875 -99.976562 115.28125 -96.5 C 115.34375 -93.019531 115.125 -89.507812 114.625 -85.96875 C 114.238281 -83.050781 113.632812 -80.070312 112.8125 -77.03125 C 111.988281 -74 111.578125 -71.21875 111.578125 -68.6875 L 111.96875 -65.84375 C 111.96875 -65.082031 111.898438 -64.257812 111.765625 -63.375 C 111.640625 -62.488281 111.515625 -61.671875 111.390625 -60.921875 C 110.378906 -55.597656 109.679688 -50.375 109.296875 -45.25 C 108.921875 -40.132812 108.164062 -34.984375 107.03125 -29.796875 C 106.269531 -26.503906 105.632812 -23.085938 105.125 -19.546875 C 104.625 -16.003906 103.550781 -12.710938 101.90625 -9.671875 C 100.769531 -7.648438 99.347656 -6.289062 97.640625 -5.59375 C 95.929688 -4.894531 94.316406 -4.421875 92.796875 -4.171875 C 91.273438 -3.921875 90.007812 -3.289062 89 -2.28125 C 87.476562 -0.757812 85.832031 0.691406 84.0625 2.078125 C 82.289062 3.472656 80.332031 4.171875 78.1875 4.171875 C 75.144531 4.171875 72.800781 3.125 71.15625 1.03125 C 69.507812 -1.050781 67.929688 -3.039062 66.421875 -4.9375 C 64.523438 -7.207031 62.691406 -9.445312 60.921875 -11.65625 C 59.148438 -13.875 57.441406 -16.25 55.796875 -18.78125 L 46.109375 -36.4375 C 44.335938 -39.09375 42.882812 -42.128906 41.75 -45.546875 C 40.613281 -48.960938 39.285156 -52.125 37.765625 -55.03125 C 35.742188 -47.695312 33.625 -40.265625 31.40625 -32.734375 C 29.1875 -25.203125 27.257812 -16.945312 25.625 -7.96875 C 25.488281 -7.46875 25.132812 -6.109375 24.5625 -3.890625 C 24 -1.671875 23.113281 0.796875 21.90625 3.515625 C 20.707031 6.234375 19.160156 8.570312 17.265625 10.53125 C 15.367188 12.488281 12.96875 13.46875 10.0625 13.46875 C 8.664062 13.46875 7.175781 12.707031 5.59375 11.1875 C 4.007812 9.675781 3.21875 7.65625 3.21875 5.125 C 3.21875 4.488281 3.3125 4.007812 3.5 3.6875 C 3.695312 3.375 3.796875 3.03125 3.796875 2.65625 L 3.421875 -0.5625 C 3.421875 -2.71875 3.671875 -4.710938 4.171875 -6.546875 C 4.679688 -8.378906 5.25 -10.242188 5.875 -12.140625 C 6.507812 -14.546875 7.015625 -16.984375 7.390625 -19.453125 C 7.773438 -21.921875 8.285156 -24.421875 8.921875 -26.953125 C 11.191406 -36.429688 13.179688 -46.007812 14.890625 -55.6875 C 16.597656 -65.375 18.53125 -75.023438 20.6875 -84.640625 C 21.1875 -86.910156 21.816406 -89.34375 22.578125 -91.9375 C 23.335938 -94.53125 24.476562 -96.773438 26 -98.671875 C 27.519531 -100.578125 29.734375 -101.53125 32.640625 -101.53125 C 35.929688 -101.53125 38.9375 -100.070312 41.65625 -97.15625 C 44.375 -94.25 46.238281 -91.40625 47.25 -88.625 C 48.644531 -85.082031 50.226562 -81.664062 52 -78.375 C 53.769531 -75.082031 55.476562 -71.726562 57.125 -68.3125 C 58.894531 -64.394531 60.695312 -59.84375 62.53125 -54.65625 C 64.363281 -49.46875 66.414062 -45.226562 68.6875 -41.9375 C 68.820312 -41.6875 69.234375 -40.769531 69.921875 -39.1875 C 70.617188 -37.601562 71.441406 -35.796875 72.390625 -33.765625 C 73.335938 -31.742188 74.191406 -29.972656 74.953125 -28.453125 C 75.710938 -26.941406 76.21875 -26.1875 76.46875 -26.1875 C 79 -26.1875 80.328125 -27.390625 80.453125 -29.796875 C 80.585938 -32.828125 81.222656 -35.957031 82.359375 -39.1875 C 83.492188 -42.414062 84.378906 -45.546875 85.015625 -48.578125 C 87.035156 -58.191406 88.867188 -67.867188 90.515625 -77.609375 C 92.160156 -87.347656 94.3125 -97.09375 96.96875 -106.84375 C 97.851562 -109.875 98.707031 -113.191406 99.53125 -116.796875 C 100.351562 -120.398438 101.742188 -123.5 103.703125 -126.09375 C 105.660156 -128.6875 108.664062 -129.984375 112.71875 -129.984375 C 114.113281 -129.984375 115.347656 -129.570312 116.421875 -128.75 C 117.492188 -127.925781 118.15625 -126.566406 118.40625 -124.671875 Z M 118.40625 -124.671875 "/></g></g></g><g fill="#375b69" fill-opacity="1"><g transform="translate(465.313161, 167.276446)"><g><path d="M 106.84375 -103.421875 C 107.21875 -102.535156 107.40625 -101.648438 107.40625 -100.765625 C 107.40625 -98.867188 106.675781 -97.539062 105.21875 -96.78125 C 103.769531 -96.019531 101.96875 -95.515625 99.8125 -95.265625 C 97.664062 -95.015625 95.609375 -94.820312 93.640625 -94.6875 C 91.679688 -94.5625 90.195312 -94.25 89.1875 -93.75 C 88.9375 -93.613281 87.453125 -93.039062 84.734375 -92.03125 C 82.015625 -91.019531 78.597656 -90.039062 74.484375 -89.09375 C 70.367188 -88.144531 66.097656 -87.671875 61.671875 -87.671875 C 60.410156 -87.671875 59.554688 -87.507812 59.109375 -87.1875 C 58.671875 -86.875 58.070312 -86.46875 57.3125 -85.96875 C 52.25 -82.039062 48.132812 -78.523438 44.96875 -75.421875 C 41.8125 -72.328125 39.535156 -67.9375 38.140625 -62.25 C 39.910156 -62.375 41.742188 -62.5 43.640625 -62.625 C 45.546875 -62.75 47.382812 -62.8125 49.15625 -62.8125 L 54.265625 -62.625 L 57.3125 -62.8125 C 58.070312 -62.8125 59.019531 -62.679688 60.15625 -62.421875 C 61.289062 -62.171875 62.429688 -62.046875 63.578125 -62.046875 C 64.835938 -62.046875 66.003906 -62.203125 67.078125 -62.515625 C 68.148438 -62.835938 69.257812 -63 70.40625 -63 C 71.789062 -63 73.082031 -62.648438 74.28125 -61.953125 C 75.488281 -61.265625 76.09375 -59.96875 76.09375 -58.0625 C 76.09375 -55.40625 74.984375 -53.222656 72.765625 -51.515625 C 70.554688 -49.804688 67.867188 -48.507812 64.703125 -47.625 C 61.546875 -46.738281 58.539062 -46.039062 55.6875 -45.53125 C 52.84375 -45.03125 50.726562 -44.65625 49.34375 -44.40625 C 48.582031 -44.28125 47.285156 -44.1875 45.453125 -44.125 C 43.617188 -44.0625 41.71875 -43.867188 39.75 -43.546875 C 37.789062 -43.234375 36.179688 -42.507812 34.921875 -41.375 C 33.910156 -40.488281 32.769531 -39.160156 31.5 -37.390625 C 30.238281 -35.617188 29.609375 -34.414062 29.609375 -33.78125 C 29.609375 -29.851562 29.890625 -27.003906 30.453125 -25.234375 C 31.023438 -23.460938 31.722656 -22.320312 32.546875 -21.8125 C 33.367188 -21.3125 34.191406 -21.0625 35.015625 -21.0625 C 35.835938 -21.0625 36.5625 -20.8125 37.1875 -20.3125 C 37.820312 -19.675781 38.457031 -19.007812 39.09375 -18.3125 C 39.726562 -17.613281 40.359375 -17.265625 40.984375 -17.265625 C 43.898438 -17.265625 46.9375 -17.644531 50.09375 -18.40625 C 53.257812 -19.164062 56.296875 -19.863281 59.203125 -20.5 L 64.703125 -21.828125 C 66.472656 -21.828125 67.578125 -21.382812 68.015625 -20.5 C 68.460938 -19.613281 68.816406 -18.285156 69.078125 -16.515625 C 68.953125 -16.515625 68.820312 -16.164062 68.6875 -15.46875 C 68.5625 -14.769531 68.5 -14.296875 68.5 -14.046875 C 66.726562 -7.210938 63.34375 -2.59375 58.34375 -0.1875 C 53.351562 2.21875 47.441406 3.421875 40.609375 3.421875 C 34.023438 3.421875 28.804688 2.15625 24.953125 -0.375 C 21.097656 -2.90625 18.1875 -6.128906 16.21875 -10.046875 C 14.257812 -13.972656 12.867188 -17.992188 12.046875 -22.109375 C 11.222656 -26.222656 10.5625 -29.796875 10.0625 -32.828125 C 10.0625 -36.617188 10.40625 -41.078125 11.09375 -46.203125 C 11.789062 -51.328125 12.835938 -56.039062 14.234375 -60.34375 C 14.734375 -62.113281 15.394531 -64.171875 16.21875 -66.515625 C 17.039062 -68.859375 17.769531 -71.101562 18.40625 -73.25 C 19.039062 -75.394531 19.359375 -77.101562 19.359375 -78.375 C 18.972656 -79.007812 18.492188 -79.863281 17.921875 -80.9375 C 17.359375 -82.007812 17.078125 -83.113281 17.078125 -84.25 C 17.078125 -84.632812 17.171875 -85.078125 17.359375 -85.578125 C 17.546875 -86.085938 17.707031 -86.597656 17.84375 -87.109375 C 17.84375 -87.109375 18.125 -87.769531 18.6875 -89.09375 C 19.257812 -90.425781 19.957031 -91.816406 20.78125 -93.265625 C 21.601562 -94.722656 22.457031 -95.707031 23.34375 -96.21875 C 24.351562 -96.71875 25.363281 -97.472656 26.375 -98.484375 C 27.382812 -99.492188 28.269531 -100.378906 29.03125 -101.140625 C 29.03125 -101.398438 29 -101.59375 28.9375 -101.71875 C 28.875 -101.84375 28.84375 -101.96875 28.84375 -102.09375 C 28.84375 -104.375 29.945312 -106.082031 32.15625 -107.21875 C 34.375 -108.351562 36.492188 -108.921875 38.515625 -108.921875 C 39.535156 -108.796875 40.613281 -108.640625 41.75 -108.453125 C 42.882812 -108.265625 43.957031 -108.171875 44.96875 -108.171875 L 59.203125 -108.734375 L 80.84375 -108.171875 C 81.46875 -108.296875 82.035156 -108.390625 82.546875 -108.453125 C 83.054688 -108.515625 83.4375 -108.546875 83.6875 -108.546875 C 84.945312 -108.546875 87.09375 -108.414062 90.125 -108.15625 C 93.164062 -107.90625 96.300781 -107.429688 99.53125 -106.734375 C 102.757812 -106.046875 105.195312 -104.941406 106.84375 -103.421875 Z M 106.84375 -103.421875 "/></g></g></g><g fill="#375b69" fill-opacity="1"><g transform="translate(557.912445, 167.276446)"><g><path d="M 74.953125 -98.671875 C 75.210938 -98.046875 75.34375 -97.414062 75.34375 -96.78125 C 75.34375 -96.144531 75.34375 -95.515625 75.34375 -94.890625 C 75.34375 -90.585938 75.179688 -85.175781 74.859375 -78.65625 C 74.546875 -72.144531 73.628906 -66.234375 72.109375 -60.921875 C 71.347656 -58.390625 71 -55.984375 71.0625 -53.703125 C 71.125 -51.421875 70.78125 -49.269531 70.03125 -47.25 C 70.03125 -47.375 70.15625 -47.566406 70.40625 -47.828125 C 70.28125 -47.566406 70.148438 -46.960938 70.015625 -46.015625 C 69.890625 -45.066406 69.828125 -44.40625 69.828125 -44.03125 C 69.828125 -43.269531 70.113281 -42.507812 70.6875 -41.75 C 71.257812 -40.988281 71.546875 -40.101562 71.546875 -39.09375 C 71.421875 -37.820312 71.039062 -36.492188 70.40625 -35.109375 C 70.28125 -34.722656 70.117188 -34.34375 69.921875 -33.96875 C 69.734375 -33.59375 69.578125 -33.210938 69.453125 -32.828125 L 69.453125 -31.6875 C 69.453125 -31.1875 69.515625 -30.867188 69.640625 -30.734375 L 68.890625 -26.1875 C 69.015625 -25.550781 69.109375 -24.820312 69.171875 -24 C 69.234375 -23.175781 69.265625 -22.453125 69.265625 -21.828125 C 69.265625 -21.191406 69.234375 -20.585938 69.171875 -20.015625 C 69.109375 -19.453125 69.015625 -18.851562 68.890625 -18.21875 C 69.265625 -18.59375 69.453125 -19.097656 69.453125 -19.734375 L 70.96875 -1.515625 C 70.96875 -0.253906 70.875 0.910156 70.6875 1.984375 C 70.5 3.066406 70.40625 4.300781 70.40625 5.6875 C 70.53125 5.945312 70.59375 6.519531 70.59375 7.40625 C 70.59375 8.789062 70.085938 10.050781 69.078125 11.1875 C 68.066406 12.332031 67.429688 13.597656 67.171875 14.984375 L 67.171875 14.796875 C 66.921875 14.796875 66.664062 15.269531 66.40625 16.21875 C 66.15625 17.164062 65.773438 18.113281 65.265625 19.0625 C 64.765625 20.019531 63.882812 20.5 62.625 20.5 C 61.351562 20.5 60.179688 19.234375 59.109375 16.703125 C 58.035156 14.171875 57.085938 10.972656 56.265625 7.109375 C 55.441406 3.253906 54.710938 -0.660156 54.078125 -4.640625 C 53.453125 -8.628906 52.945312 -12.078125 52.5625 -14.984375 C 52.1875 -15.242188 52.03125 -15.878906 52.09375 -16.890625 C 52.15625 -17.898438 52.085938 -19.003906 51.890625 -20.203125 C 51.703125 -21.410156 51.101562 -22.457031 50.09375 -23.34375 C 49.082031 -24.226562 47.25 -24.671875 44.59375 -24.671875 C 42.695312 -24.671875 40.289062 -24.445312 37.375 -24 C 34.46875 -23.5625 31.878906 -23.21875 29.609375 -22.96875 C 28.847656 -22.832031 28.085938 -21.53125 27.328125 -19.0625 C 26.566406 -16.601562 25.773438 -13.882812 24.953125 -10.90625 C 24.128906 -7.9375 23.210938 -5.566406 22.203125 -3.796875 L 22.765625 -4.75 C 22.515625 -3.863281 22.070312 -2.28125 21.4375 0 C 20.8125 2.28125 19.957031 4.679688 18.875 7.203125 C 17.800781 9.734375 16.410156 11.882812 14.703125 13.65625 C 12.992188 15.425781 10.941406 16.3125 8.546875 16.3125 C 5.878906 16.3125 3.660156 15.046875 1.890625 12.515625 C 0.117188 9.992188 -0.765625 7.40625 -0.765625 4.75 C -0.765625 0.695312 0.148438 -3.601562 1.984375 -8.15625 C 3.828125 -12.707031 5.378906 -16.757812 6.640625 -20.3125 C 7.023438 -21.570312 7.660156 -23.085938 8.546875 -24.859375 C 9.429688 -26.628906 9.875 -28.210938 9.875 -29.609375 L 9.484375 -33.203125 C 9.484375 -34.472656 9.769531 -35.707031 10.34375 -36.90625 C 10.914062 -38.113281 11.390625 -39.347656 11.765625 -40.609375 C 11.765625 -40.359375 11.734375 -40.203125 11.671875 -40.140625 C 11.609375 -40.078125 11.578125 -39.976562 11.578125 -39.84375 C 12.335938 -41.488281 13.253906 -42.847656 14.328125 -43.921875 C 15.398438 -45.003906 16.253906 -46.429688 16.890625 -48.203125 C 19.171875 -55.535156 22.238281 -62.585938 26.09375 -69.359375 C 29.945312 -76.128906 33.269531 -83.179688 36.0625 -90.515625 C 36.945312 -92.921875 38.050781 -95.703125 39.375 -98.859375 C 40.707031 -102.023438 42.191406 -105.09375 43.828125 -108.0625 C 45.472656 -111.039062 47.242188 -113.507812 49.140625 -115.46875 C 51.046875 -117.425781 53.007812 -118.40625 55.03125 -118.40625 C 58.445312 -118.40625 61.925781 -117.425781 65.46875 -115.46875 C 69.007812 -113.507812 71.476562 -110.945312 72.875 -107.78125 C 73.5 -106.269531 73.875 -104.722656 74 -103.140625 C 74.132812 -101.554688 74.453125 -100.066406 74.953125 -98.671875 Z M 51.8125 -46.875 C 52.1875 -50.164062 52.59375 -53.582031 53.03125 -57.125 C 53.476562 -60.664062 53.703125 -64.207031 53.703125 -67.75 L 52.9375 -87.296875 C 51.425781 -83.617188 49.59375 -79.3125 47.4375 -74.375 C 45.289062 -69.445312 43.265625 -64.515625 41.359375 -59.578125 C 39.460938 -54.648438 38.070312 -50.289062 37.1875 -46.5 C 39.34375 -46.5 41.78125 -46.53125 44.5 -46.59375 C 47.21875 -46.65625 49.65625 -46.75 51.8125 -46.875 Z M 69.078125 -31.6875 C 69.078125 -31.6875 69.203125 -32.066406 69.453125 -32.828125 C 69.453125 -32.828125 69.328125 -32.445312 69.078125 -31.6875 Z M 69.078125 -31.6875 "/></g></g></g><g fill="#375b69" fill-opacity="1"><g transform="translate(635.900827, 167.276446)"><g><path d="M 52.1875 -99.0625 L 52.1875 -97.734375 C 52.1875 -94.691406 51.898438 -92.0625 51.328125 -89.84375 C 50.765625 -87.632812 49.972656 -85.265625 48.953125 -82.734375 C 45.796875 -75.523438 42.695312 -67.835938 39.65625 -59.671875 C 36.625 -51.515625 34.03125 -43.453125 31.875 -35.484375 C 31.25 -33.078125 30.363281 -30.421875 29.21875 -27.515625 C 28.082031 -24.609375 27.328125 -21.445312 26.953125 -18.03125 C 26.566406 -15.75 26.117188 -12.835938 25.609375 -9.296875 C 25.109375 -5.753906 24.351562 -2.242188 23.34375 1.234375 C 22.332031 4.710938 20.941406 7.648438 19.171875 10.046875 C 17.398438 12.453125 15.054688 13.65625 12.140625 13.65625 C 9.992188 13.65625 8.539062 12.800781 7.78125 11.09375 C 7.019531 9.394531 6.640625 7.28125 6.640625 4.75 C 6.640625 2.21875 6.640625 -0.3125 6.640625 -2.84375 L 7.015625 -10.8125 L 6.453125 -22.578125 C 6.453125 -27.765625 7.207031 -33.332031 8.71875 -39.28125 C 10.238281 -45.226562 11.695312 -51.175781 13.09375 -57.125 L 14.421875 -60.34375 C 16.191406 -66.289062 18.210938 -72.394531 20.484375 -78.65625 C 22.765625 -84.914062 25.992188 -91.65625 30.171875 -98.875 C 30.546875 -99.625 31.300781 -100.820312 32.4375 -102.46875 C 33.582031 -104.113281 35.132812 -105.628906 37.09375 -107.015625 C 39.0625 -108.410156 41.304688 -109.109375 43.828125 -109.109375 C 47.117188 -109.109375 49.269531 -107.96875 50.28125 -105.6875 C 51.300781 -103.414062 51.9375 -101.207031 52.1875 -99.0625 Z M 52.1875 -99.0625 "/></g></g></g></g></g></svg>